<?xml version="1.0" encoding="UTF-8"?>
<svg id="Layer_3" data-name="Layer 3" xmlns="http://www.w3.org/2000/svg" viewBox="0 0 1616.59 700">
  <defs>
    <style>
      .cls-1 {
        fill: #36454f;
      }

      .cls-2 {
        fill: #16365e;
      }

      .cls-3 {
        fill: #a5ce39;
      }
    </style>
  </defs>
  <g>
    <path class="cls-2" d="M1344.87,77.41c28.3,3.31,54.25,20.88,64.84,39.4,10.03,17.54,3.94,31.83-11.97,45.89l53.06-32.33-130.15-98.53,24.22,45.57Z"/>
    <path class="cls-2" d="M1299.4,86.4c3.26-1.9,6.59-3.49,9.96-4.79l-35.69-67.16-164.18,170.31,67.99,75.43,30.21,99.47c5.76,1.27,11.49,3.37,16.99,6.44,30.4,16.97,46.01,57.97,34.82,78.4-4.44,8.1-12.43,11.74-22.35,12.15l21.05,69.32,107.5-338.36-1.06-1.99c-2.07,1.24-4.19,2.48-6.35,3.74-41.59,24.24-85.8,36.65-102.06,8.22-16.26-28.43,1.58-86.94,43.17-111.18Z"/>
    <path class="cls-2" d="M1173.36,361.34l-25.61-84.35-42.1-46.7,20.31,208.67c.03.33.17.62.39.84l101.06,99.51-27.79-91.52c-5.17-2.24-10.37-4.83-15.47-7.68-30.4-16.97-49.5-37.73-38.31-58.16,4.98-9.09,15.13-16.58,27.53-20.61Z"/>
    <path class="cls-2" d="M1287.46,543.94l140.64-124.05c.24-.21.39-.51.43-.84l32.15-255.66-64.87,39.53-108.34,341.02Z"/>
  </g>
  <g>
    <path class="cls-3" d="M224.84,321.9v30.61h-14.69v114.36h14.69v30.61h-68.93v-30.61h14.69v-114.36h-14.69v-30.61h68.93Z"/>
    <path class="cls-1" d="M250.06,497.48v-175.58h62.2c62.36,0,93.54,28.53,93.54,85.59,0,27.35-8.51,49.18-25.53,65.51-17.02,16.33-39.69,24.49-68.02,24.49h-62.2ZM289.61,354.1v111.3h19.59c17.14,0,30.59-5.14,40.34-15.43,9.75-10.28,14.63-24.28,14.63-42,0-16.73-4.84-29.89-14.51-39.49-9.67-9.59-23.24-14.39-40.71-14.39h-19.35Z"/>
    <path class="cls-1" d="M536.45,354.1h-61.95v43.1h56.93v32.08h-56.93v68.2h-39.55v-175.58h101.5v32.2Z"/>
  </g>
  <g>
    <path class="cls-3" d="M224.84,506.9v30.61h-14.69v114.36h14.69v30.61h-68.93v-30.61h14.69v-114.36h-14.69v-30.61h68.93Z"/>
    <path class="cls-1" d="M367.36,682.48h-38.57v-69.67c0-19.43-6.94-29.14-20.81-29.14-6.69,0-12.2,2.57-16.53,7.71-4.33,5.14-6.49,11.67-6.49,19.59v71.5h-38.69v-125.38h38.69v19.84h.49c9.22-15.26,22.65-22.9,40.28-22.9,27.75,0,41.63,17.22,41.63,51.67v76.77Z"/>
    <path class="cls-1" d="M473.76,681.01c-5.71,3.02-14.33,4.53-25.83,4.53-27.26,0-40.89-14.16-40.89-42.49v-57.42h-20.32v-28.53h20.32v-27.06l38.57-11.02v38.08h28.16v28.53h-28.16v50.69c0,13.06,5.18,19.59,15.55,19.59,4.08,0,8.28-1.18,12.61-3.55v28.65Z"/>
    <path class="cls-1" d="M608.2,630.81h-81.79c1.31,18.2,12.77,27.3,34.41,27.3,13.79,0,25.92-3.26,36.36-9.8v27.92c-11.59,6.2-26.65,9.31-45.18,9.31-20.24,0-35.96-5.61-47.14-16.84-11.18-11.22-16.77-26.88-16.77-46.96s6.04-37.3,18.12-49.47c12.08-12.16,26.94-18.24,44.57-18.24s32.43,5.43,42.43,16.28c10,10.86,15,25.59,15,44.2v16.28ZM572.33,607.06c0-17.96-7.27-26.94-21.79-26.94-6.2,0-11.57,2.57-16.1,7.71-4.53,5.14-7.29,11.55-8.26,19.22h46.16Z"/>
    <path class="cls-1" d="M713.01,592c-4.65-2.53-10.08-3.8-16.28-3.8-8.41,0-14.98,3.08-19.71,9.24-4.74,6.16-7.1,14.55-7.1,25.16v59.87h-38.69v-125.38h38.69v23.26h.49c6.12-16.98,17.14-25.47,33.06-25.47,4.08,0,7.26.49,9.55,1.47v35.63Z"/>
    <path class="cls-1" d="M835.33,682.48h-36.61v-18h-.49c-8.41,14.04-20.86,21.06-37.34,21.06-12.16,0-21.73-3.45-28.71-10.35-6.98-6.9-10.47-16.1-10.47-27.61,0-24.32,14.41-38.36,43.22-42.12l34.04-4.53c0-13.71-7.43-20.57-22.28-20.57s-29.14,4.45-42.61,13.35v-29.14c5.39-2.77,12.75-5.22,22.1-7.35,9.35-2.12,17.86-3.18,25.53-3.18,35.75,0,53.63,17.84,53.63,53.51v74.93ZM798.96,631.55v-8.45l-22.77,2.94c-12.57,1.63-18.86,7.31-18.86,17.02,0,4.41,1.53,8.02,4.59,10.84,3.06,2.82,7.2,4.22,12.43,4.22,7.26,0,13.18-2.51,17.75-7.53,4.57-5.02,6.86-11.37,6.86-19.04Z"/>
    <path class="cls-1" d="M960.95,677.95c-8.74,5.06-21.35,7.59-37.83,7.59-19.27,0-34.86-5.83-46.77-17.51-11.92-11.67-17.88-26.73-17.88-45.18,0-21.3,6.39-38.1,19.16-50.38,12.77-12.28,29.85-18.43,51.24-18.43,14.77,0,25.47,1.96,32.08,5.88v32.81c-8.08-6.04-17.1-9.06-27.06-9.06-11.1,0-19.9,3.24-26.39,9.73s-9.73,15.45-9.73,26.88,3.1,19.82,9.31,26.14c6.2,6.33,14.73,9.49,25.59,9.49,9.63,0,19.06-3.02,28.28-9.06v31.1Z"/>
    <path class="cls-1" d="M1062.09,681.01c-5.71,3.02-14.33,4.53-25.83,4.53-27.26,0-40.89-14.16-40.89-42.49v-57.42h-20.32v-28.53h20.32v-27.06l38.57-11.02v38.08h28.16v28.53h-28.16v50.69c0,13.06,5.18,19.59,15.55,19.59,4.08,0,8.28-1.18,12.61-3.55v28.65Z"/>
    <path class="cls-1" d="M1103.47,537.27c-6.53,0-11.88-1.94-16.04-5.82-4.16-3.88-6.24-8.63-6.24-14.26s2.08-10.53,6.24-14.2c4.16-3.67,9.51-5.51,16.04-5.51s11.98,1.84,16.1,5.51c4.12,3.67,6.18,8.41,6.18,14.2s-2.06,10.69-6.18,14.45c-4.12,3.76-9.49,5.63-16.1,5.63ZM1122.57,682.48h-38.69v-125.38h38.69v125.38Z"/>
    <path class="cls-1" d="M1274.52,557.1l-46.65,125.38h-44.08l-44.45-125.38h41.38l21.79,77.26c2.45,8.74,3.88,16.16,4.29,22.28h.49c.57-5.79,2.08-12.98,4.53-21.55l22.28-77.99h40.41Z"/>
    <path class="cls-1" d="M1403.69,630.81h-81.79c1.31,18.2,12.77,27.3,34.41,27.3,13.79,0,25.92-3.26,36.36-9.8v27.92c-11.59,6.2-26.65,9.31-45.18,9.31-20.24,0-35.96-5.61-47.14-16.84-11.18-11.22-16.77-26.88-16.77-46.96s6.04-37.3,18.12-49.47c12.08-12.16,26.94-18.24,44.57-18.24s32.43,5.43,42.43,16.28c10,10.86,15,25.59,15,44.2v16.28ZM1367.82,607.06c0-17.96-7.27-26.94-21.79-26.94-6.2,0-11.57,2.57-16.1,7.71-4.53,5.14-7.29,11.55-8.26,19.22h46.16Z"/>
  </g>
</svg>