<?xml version="1.0" encoding="UTF-8"?>
<svg id="Layer_3" data-name="Layer 3" xmlns="http://www.w3.org/2000/svg" viewBox="0 0 1616.59 700">
  <defs>
    <style>
      .cls-1 {
        fill: #231f20;
      }
    </style>
  </defs>
  <g>
    <path class="cls-1" d="M103.93,119.23v38.85h-18.65v145.15h18.65v38.85H16.44v-38.85h18.65v-145.15h-18.65v-38.85h87.49Z"/>
    <path class="cls-1" d="M135.94,342.07V119.23h78.94c79.15,0,118.73,36.21,118.73,108.63,0,34.71-10.8,62.42-32.4,83.14-21.6,20.72-50.38,31.08-86.33,31.08h-78.94ZM186.14,160.1v141.26h24.86c21.76,0,38.82-6.53,51.2-19.58,12.38-13.05,18.57-30.82,18.57-53.3,0-21.24-6.14-37.94-18.41-50.12-12.28-12.17-29.5-18.26-51.67-18.26h-24.55Z"/>
    <path class="cls-1" d="M499.43,160.1h-78.63v54.7h72.26v40.72h-72.26v86.56h-50.2V119.23h128.83v40.87Z"/>
  </g>
  <g>
    <path class="cls-1" d="M103.93,354.04v38.85h-18.65v145.15h18.65v38.85H16.44v-38.85h18.65v-145.15h-18.65v-38.85h87.49Z"/>
    <path class="cls-1" d="M284.82,576.89h-48.95v-88.42c0-24.66-8.81-36.99-26.42-36.99-8.5,0-15.49,3.26-20.98,9.79-5.49,6.53-8.24,14.82-8.24,24.86v90.75h-49.11v-159.13h49.11v25.18h.62c11.71-19.37,28.75-29.06,51.13-29.06,35.22,0,52.84,21.86,52.84,65.58v97.44Z"/>
    <path class="cls-1" d="M419.87,575.02c-7.25,3.83-18.18,5.75-32.79,5.75-34.6,0-51.9-17.97-51.9-53.92v-72.88h-25.8v-36.21h25.8v-34.34l48.95-13.99v48.33h35.74v36.21h-35.74v64.34c0,16.58,6.58,24.86,19.74,24.86,5.18,0,10.51-1.5,16.01-4.51v36.36Z"/>
    <path class="cls-1" d="M590.5,511.31h-103.81c1.66,23.1,16.21,34.66,43.67,34.66,17.51,0,32.89-4.14,46.15-12.43v35.43c-14.71,7.87-33.83,11.81-57.34,11.81-25.69,0-45.64-7.12-59.83-21.37-14.2-14.24-21.29-34.11-21.29-59.6s7.67-47.34,23-62.78c15.33-15.44,34.19-23.15,56.57-23.15s41.16,6.89,53.85,20.67c12.69,13.78,19.04,32.48,19.04,56.1v20.67ZM544.96,481.16c0-22.79-9.22-34.19-27.66-34.19-7.87,0-14.69,3.26-20.44,9.79-5.75,6.53-9.25,14.66-10.49,24.4h58.59Z"/>
    <path class="cls-1" d="M723.52,462.05c-5.91-3.21-12.8-4.82-20.67-4.82-10.67,0-19.01,3.91-25.02,11.73-6.01,7.82-9.01,18.47-9.01,31.94v75.99h-49.11v-159.13h49.11v29.53h.62c7.77-21.55,21.76-32.32,41.96-32.32,5.18,0,9.22.62,12.12,1.87v45.22Z"/>
    <path class="cls-1" d="M878.77,576.89h-46.47v-22.84h-.62c-10.67,17.82-26.47,26.73-47.4,26.73-15.44,0-27.58-4.38-36.44-13.13-8.86-8.75-13.29-20.44-13.29-35.04,0-30.87,18.28-48.69,54.86-53.46l43.2-5.75c0-17.4-9.43-26.11-28.28-26.11s-36.99,5.65-54.08,16.94v-36.99c6.84-3.52,16.19-6.63,28.05-9.32,11.86-2.69,22.66-4.04,32.4-4.04,45.38,0,68.07,22.64,68.07,67.91v95.11ZM832.61,512.24v-10.72l-28.9,3.73c-15.96,2.07-23.93,9.27-23.93,21.6,0,5.59,1.94,10.18,5.83,13.75,3.89,3.57,9.14,5.36,15.77,5.36,9.22,0,16.73-3.19,22.53-9.56,5.8-6.37,8.7-14.43,8.7-24.16Z"/>
    <path class="cls-1" d="M1038.21,571.14c-11.09,6.42-27.09,9.63-48.02,9.63-24.45,0-44.24-7.41-59.36-22.22-15.13-14.81-22.69-33.93-22.69-57.34,0-27.04,8.11-48.35,24.32-63.95,16.21-15.59,37.89-23.39,65.04-23.39,18.75,0,32.32,2.49,40.72,7.46v41.65c-10.26-7.67-21.71-11.5-34.34-11.5-14.09,0-25.25,4.12-33.49,12.35-8.24,8.24-12.35,19.61-12.35,34.11s3.94,25.15,11.81,33.18c7.87,8.03,18.7,12.04,32.48,12.04,12.22,0,24.19-3.83,35.9-11.5v39.47Z"/>
    <path class="cls-1" d="M1166.57,575.02c-7.25,3.83-18.18,5.75-32.79,5.75-34.6,0-51.9-17.97-51.9-53.92v-72.88h-25.8v-36.21h25.8v-34.34l48.95-13.99v48.33h35.74v36.21h-35.74v64.34c0,16.58,6.58,24.86,19.74,24.86,5.18,0,10.51-1.5,16.01-4.51v36.36Z"/>
    <path class="cls-1" d="M1219.1,392.58c-8.29,0-15.07-2.46-20.36-7.38-5.28-4.92-7.93-10.96-7.93-18.1s2.64-13.36,7.93-18.03c5.28-4.66,12.07-6.99,20.36-6.99s15.2,2.33,20.44,6.99c5.23,4.66,7.85,10.67,7.85,18.03s-2.62,13.57-7.85,18.34c-5.23,4.77-12.04,7.15-20.44,7.15ZM1243.34,576.89h-49.11v-159.13h49.11v159.13Z"/>
    <path class="cls-1" d="M1436.2,417.76l-59.21,159.13h-55.94l-56.41-159.13h52.53l27.66,98.06c3.11,11.09,4.92,20.51,5.44,28.28h.62c.72-7.36,2.64-16.47,5.75-27.35l28.28-98.99h51.28Z"/>
    <path class="cls-1" d="M1600.15,511.31h-103.81c1.66,23.1,16.21,34.66,43.67,34.66,17.51,0,32.89-4.14,46.15-12.43v35.43c-14.71,7.87-33.83,11.81-57.34,11.81-25.69,0-45.64-7.12-59.83-21.37-14.2-14.24-21.29-34.11-21.29-59.6s7.67-47.34,23-62.78c15.33-15.44,34.19-23.15,56.57-23.15s41.16,6.89,53.85,20.67c12.69,13.78,19.04,32.48,19.04,56.1v20.67ZM1554.62,481.16c0-22.79-9.22-34.19-27.66-34.19-7.87,0-14.69,3.26-20.44,9.79-5.75,6.53-9.25,14.66-10.49,24.4h58.59Z"/>
  </g>
</svg>